HIERARCHY
ROOT Hips
{
  OFFSET 43.0842 91.1655 101.099
  CHANNELS 6 Xposition Yposition Zposition Zrotation Xrotation Yrotation
  JOINT LeftUpLeg
  {
    OFFSET 8.64259 1.95398 -2.38835
    CHANNELS 3 Zrotation Xrotation Yrotation
    JOINT LeftLeg
    {
      OFFSET 43.7702 0 0
      CHANNELS 3 Zrotation Xrotation Yrotation
      JOINT LeftFoot
      {
        OFFSET 40.6238 0 0
        CHANNELS 3 Zrotation Xrotation Yrotation
        JOINT LeftToeBase
        {
          OFFSET 12.7242 0 0
          CHANNELS 3 Zrotation Xrotation Yrotation
          End Site
          {
            OFFSET 0 0 0
          }
        }
      }
    }
  }
  JOINT RightUpLeg
  {
    OFFSET -8.2249 1.95398 -2.59336
    CHANNELS 3 Zrotation Xrotation Yrotation
    JOINT RightLeg
    {
      OFFSET 43.5653 0 0
      CHANNELS 3 Zrotation Xrotation Yrotation
      JOINT RightFoot
      {
        OFFSET 40.6238 0 0
        CHANNELS 3 Zrotation Xrotation Yrotation
        JOINT RightToeBase
        {
          OFFSET 12.7242 0 0
          CHANNELS 3 Zrotation Xrotation Yrotation
          End Site
          {
            OFFSET 0 0 0
          }
        }
      }
    }
  }
  JOINT Spine
  {
    OFFSET 0.165834 0.87714 6.61349
    CHANNELS 3 Zrotation Xrotation Yrotation
    JOINT Spine1
    {
      OFFSET 7.38963 1.71661e-005 0
      CHANNELS 3 Zrotation Xrotation Yrotation
      JOINT Spine2
      {
        OFFSET 11.9445 1.14441e-005 0
        CHANNELS 3 Zrotation Xrotation Yrotation
        JOINT Spine3
        {
          OFFSET 14.7254 4.19617e-005 0
          CHANNELS 3 Zrotation Xrotation Yrotation
          JOINT Spine4
          {
            OFFSET 10.9679 0 0
            CHANNELS 3 Zrotation Xrotation Yrotation
            JOINT RightShoulder
            {
              OFFSET 2.46616 -1.6653 3.69651
              CHANNELS 3 Zrotation Xrotation Yrotation
              JOINT RightArm
              {
                OFFSET 13.0012 0 0
                CHANNELS 3 Zrotation Xrotation Yrotation
                JOINT RightForeArm
                {
                  OFFSET 28.7848 1.52588e-005 0
                  CHANNELS 3 Zrotation Xrotation Yrotation
                  JOINT RightHand
                  {
                    OFFSET 26.5688 1.52588e-005 0
                    CHANNELS 3 Zrotation Xrotation Yrotation
                    End Site
                    {
                      OFFSET 0 0 0
                    }
                  }
                }
              }
            }
            JOINT LeftShoulder
            {
              OFFSET 2.38034 -1.29275 -3.7523
              CHANNELS 3 Zrotation Xrotation Yrotation
              JOINT LeftArm
              {
                OFFSET 16.3182 6.10351e-005 0
                CHANNELS 3 Zrotation Xrotation Yrotation
                JOINT LeftForeArm
                {
                  OFFSET 27.0901 0 0
                  CHANNELS 3 Zrotation Xrotation Yrotation
                  JOINT LeftHand
                  {
                    OFFSET 24.5451 1.52588e-005 0
                    CHANNELS 3 Zrotation Xrotation Yrotation
                    End Site
                    {
                      OFFSET 0 0 0
                    }
                  }
                }
              }
            }
            JOINT Neck
            {
              OFFSET 5.0226 -0.0266342 0
              CHANNELS 3 Zrotation Xrotation Yrotation
              JOINT Head
              {
                OFFSET 6.69364 2.86102e-005 0
                CHANNELS 3 Zrotation Xrotation Yrotation
                End Site
                {
                  OFFSET 0 0 0
                }
              }
            }
          }
        }
      }
    }
  }
}
MOTION
Frames:	12
Frame Time:	0.0333333
26.9934 91.8009 114.769 84.8195 -49.0336 83.4101 -172.313 7.23609 97.4432 -20.1246 4.26052 -2.23229 62.4476 0.086864 4.87023 35.5888 5.00312 7.15766 173.815 24.7646 80.6355 -26.0088 -1.33185 0.471244 60.4512 0.348603 -5.43358 30.4978 -0.774786 -0.558167 -0.529946 7.71114 -90.5235 11.4459 -1.29889 -0.911084 -0.224652 -1.33773 -0.853052 -22.7605 -0.965056 -1.25933 -2.74783 -0.96503 -1.25933 97.0438 -34.6963 -91.8208 41.9249 41.3327 -60.9509 -15.0003 -13.0479 -120.523 -9.94763 -1.16678 8.26739 -91.1184 -41.4477 74.8796 -29.78 -3.28919 -77.9547 7.2561 25.7292 -89.214 23.8999 2.8785 -4.99903 -34.3572 -5.1559 -11.0634 11.4517 -7.6613 -3.45777 
27.342 92.026 113.014 86.6347 -46.5045 85.0839 -172.684 7.4902 96.9722 -20.3973 6.63638 -2.12157 62.4889 0.408753 5.86674 35.459 5.70476 5.47267 172.689 23.4011 79.795 -24.5043 0.386895 0.912308 59.613 1.19445 -5.36162 28.5566 0.721826 -1.59609 -0.472606 7.71717 -90.4836 11.4346 -1.16608 -0.845116 -0.23607 -1.20215 -0.792984 -22.7715 -0.858224 -1.1565 -2.7589 -0.858198 -1.15649 96.566 -34.7735 -92.7164 43.6586 44.4076 -60.392 -15.6424 -14.2576 -119.417 -10.3078 -1.30324 7.9815 -90.9729 -41.3952 75.1039 -29.1413 -1.85086 -77.0822 7.04356 24.8762 -88.1397 23.2142 2.79577 -6.24496 -35.1041 -5.43391 -11.2063 11.2371 -8.27151 -5.07147 
27.6421 92.0508 111.422 88.1253 -44.5879 86.496 -173.024 8.15951 96.5443 -21.8182 8.69558 -2.08443 63.34 1.3755 7.06883 34.986 5.20583 5.20946 171.352 22.1945 79.4049 -23.3245 0.503213 1.57626 59.7231 1.04839 -6.4685 27.2508 1.97027 -2.82547 -0.307192 7.80048 -90.4238 11.2705 -0.808577 -0.76365 -0.400382 -0.841407 -0.727331 -22.9348 -0.541689 -0.971343 -2.92215 -0.541702 -0.971351 97.0789 -35.4537 -91.6488 45.8919 46.5962 -60.5394 -17.2984 -14.6165 -119.321 -9.8208 -1.11582 8.43367 -90.8903 -41.1499 75.1709 -27.7537 0.218326 -77.3573 8.25996 24.2163 -88.1362 23.0376 2.78186 -5.33885 -34.1099 -5.85135 -12.5751 10.2455 -8.83654 -5.53737 
27.768 91.9059 110.16 89.6054 -43.2975 87.7617 -172.953 8.88151 96.3436 -23.9866 11.4788 -2.2417 63.8151 2.22293 8.58143 34.9378 5.16597 5.16149 170.562 21.2184 79.5834 -23.5796 1.25518 1.91318 60.5302 -0.251954 -4.54229 30.3237 -0.063409 -2.29508 -0.140663 7.8299 -90.2641 11.2125 -0.402745 -0.486148 -0.458437 -0.423731 -0.467954 -22.9931 -0.238024 -0.584714 -2.98044 -0.238016 -0.584711 97.1242 -37.7015 -91.247 45.6199 48.5434 -59.0969 -17.9468 -14.3968 -119.317 -9.7553 -1.09852 8.3133 -90.6207 -40.2375 75.364 -28.1081 1.67783 -76.8747 8.43343 24.472 -88.775 21.6094 2.64617 -3.63738 -33.9441 -5.68958 -14.4356 9.69656 -8.9431 -5.57667 
27.7369 91.679 109.203 91.0761 -42.1676 88.9918 -172.489 9.56108 96.45 -26.2363 14.4942 -2.40279 63.9898 3.63605 9.86826 35.0035 5.03976 5.56849 170.435 20.0682 80.1438 -24.2608 2.57795 1.87837 61.9904 -2.23488 1.03322 34.3518 -2.4093 -2.3193 -0.109134 7.88815 -90.2065 11.0971 -0.313008 -0.380836 -0.573883 -0.32947 -0.366701 -23.1087 -0.184095 -0.457311 -3.09608 -0.184086 -0.457304 96.2916 -38.4674 -92.6474 45.9577 50.3266 -57.7927 -18.2517 -14.5682 -119.081 -10.1225 -1.23568 8.08283 -91.0961 -42.1675 75.116 -24.9908 2.19524 -75.3136 8.02452 22.0144 -90.2159 22.9983 2.79744 -3.76665 -33.2146 -5.8455 -11.9127 8.45557 -8.78692 -7.82518 
27.6907 91.2067 108.532 92.3506 -40.8086 90.3139 -172.201 10.7491 96.77 -29.3589 16.5481 -2.2182 64.64 5.19341 11.1115 35.1118 5.18474 5.57198 171.105 18.7664 80.6783 -24.4654 1.95716 1.27403 62.7898 -2.59828 -0.231545 34.6682 -2.75458 -1.80309 -0.0483932 7.89839 -90.1116 11.0768 -0.148032 -0.207809 -0.594177 -0.157061 -0.201097 -23.1292 -0.0787439 -0.242691 -3.11656 -0.0787491 -0.242698 95.955 -40.2595 -92.9732 45.101 51.8254 -55.6313 -17.9431 -14.6153 -119.038 -9.73311 -1.10788 7.95568 -91.3627 -42.553 74.7886 -23.5319 3.40104 -73.6439 8.38575 20.34 -91.4421 21.9864 2.6859 -3.6572 -33.5149 -5.86317 -11.7271 8.31202 -8.86836 -8.41121 
27.6562 90.7985 107.899 93.0754 -38.9959 91.0278 -172.192 12.0119 96.7597 -31.8342 18.6915 -1.9532 64.7395 5.90326 12.1666 35.6535 5.88347 5.64081 170.935 18.2808 80.2639 -24.7525 3.53553 1.14446 62.6911 -2.16165 -0.488413 32.3252 -2.3855 1.27799 -0.0358378 7.9248 -90.0582 11.0243 -0.0982619 -0.106451 -0.64665 -0.102849 -0.102035 -23.1818 -0.0617175 -0.131059 -3.16915 -0.0617203 -0.131065 95.9685 -40.7408 -92.8755 44.9183 53.1676 -53.8102 -18.2892 -14.1578 -119.361 -8.94865 -0.838943 7.9695 -91.5832 -42.959 74.5451 -23.9113 3.49924 -72.8769 9.12981 21.126 -92.9808 22.1205 2.70103 -2.89784 -32.8059 -6.06139 -11.3141 7.51034 -8.95589 -9.29875 
27.7069 90.4344 107.309 93.8043 -37.3941 91.3455 -172.274 12.8807 96.5419 -33.9334 22.2696 -1.87091 64.7072 6.3883 14.0121 35.8103 5.78906 6.2378 169.925 18.3848 79.2709 -26.0602 1.68127 1.61775 62.4934 -1.399 -1.57444 32.1567 -2.44005 1.71861 -0.0644478 7.92778 -89.9677 11.0183 -0.11329 0.0751 -0.652607 -0.109868 0.080004 -23.1878 -0.130615 0.0375833 -3.17515 -0.130617 0.0375839 95.8387 -41.6866 -92.959 42.701 53.2192 -50.6752 -18.1023 -12.9226 -118.784 -9.1219 -0.920172 7.5634 -91.6855 -43.6442 74.5714 -23.1443 4.04011 -71.6849 9.48062 20.2947 -93.9587 22.2838 2.72005 -3.10537 -32.8252 -6.28272 -10.5373 6.84262 -9.15564 -10.7578 
27.7581 90.0862 106.911 94.5431 -36.2734 92.0721 -172.1 13.8137 96.8282 -36.2009 23.9966 -1.80472 65.1108 7.14548 15.0229 35.8222 5.72045 6.40239 169.316 18.4562 78.9863 -27.429 1.8618 1.86235 62.6844 -1.42687 -2.26313 32.3815 -2.9614 3.00396 -0.054506 7.91981 -89.9218 11.0342 -0.0722291 0.162491 -0.636719 -0.0650084 0.16551 -23.1718 -0.117717 0.133273 -3.15919 -0.117716 0.133274 95.7595 -42.9733 -92.9015 39.7219 53.5378 -47.6538 -17.1529 -12.6102 -118.298 -8.98101 -0.892212 7.19643 -91.5146 -43.8094 74.8893 -23.7293 4.32625 -70.6239 9.09 20.8002 -94.8078 22.0304 2.68981 -2.85956 -33.0699 -6.31594 -10.6787 6.0525 -9.20308 -11.1337 
27.7128 89.8965 106.602 95.0349 -35.588 92.9537 -171.834 14.3705 97.3426 -37.546 24.7797 -1.64974 65.1074 7.35875 14.781 36.0393 5.97939 6.47746 169.129 18.3444 79.2582 -28.0844 2.53581 2.10081 62.5671 -1.03931 -2.36637 32.225 -2.9016 3.06988 -0.0707518 7.91388 -89.9266 11.0462 -0.10676 0.156317 -0.624761 -0.0997522 0.160858 -23.1599 -0.148809 0.117002 -3.14725 -0.1488 0.117003 95.5067 -43.2057 -93.2945 39.9321 54.7157 -47.7178 -16.7549 -14.2153 -118.28 -8.78387 -0.78658 7.90017 -91.8519 -44.4397 74.526 -22.9323 3.80198 -69.2652 8.86808 20.3 -96.2355 21.3652 2.60887 -2.25988 -33.436 -6.38889 -9.75122 6.20863 -9.28336 -12.2001 
27.6833 89.7105 106.461 95.8251 -34.7918 93.8053 -171.843 14.5988 97.7734 -38.9068 26.308 -1.32189 65.1578 7.61258 15.6612 35.9679 6.02344 6.20037 168.897 17.6965 79.434 -28.4888 2.08329 2.19215 62.7604 -1.03362 -3.015 32.6046 -2.9101 2.46445 -0.0954438 7.94774 -89.924 10.9782 -0.154734 0.166063 -0.692704 -0.147288 0.172711 -23.2279 -0.197513 0.111877 -3.21525 -0.197504 0.111875 95.4396 -43.3908 -93.3752 38.862 54.7739 -46.8305 -17.2249 -13.8355 -117.779 -8.60009 -0.733269 7.74211 -92.0006 -44.6045 74.3373 -22.7897 3.63282 -68.6924 8.98791 20.081 -96.9359 20.8955 2.55371 -2.58263 -33.1765 -6.32476 -10.1195 5.86417 -9.18658 -11.8996 
27.6021 89.4897 106.365 96.4402 -34.4592 94.2751 -171.841 14.6253 97.8989 -39.9348 27.3562 -1.11445 65.1829 7.82579 15.9153 36.0884 5.99809 6.5719 169.032 17.5648 79.4841 -29.3283 1.86476 1.99287 63.1136 -1.08419 -3.68403 32.5653 -3.06798 3.04234 -0.172622 7.96375 -89.9585 10.9492 -0.3244 0.113237 -0.721674 -0.319126 0.127399 -23.2572 -0.343449 0.0105034 -3.24457 -0.34345 0.010493 95.4304 -41.4761 -93.7263 40.4878 54.4277 -47.4452 -17.443 -14.308 -117.293 -8.20882 -0.621198 7.39754 -92.2616 -45.6821 74.2177 -21.3034 3.37569 -68.0734 8.95179 18.6347 -98.1576 19.9715 2.43464 -2.19284 -32.6193 -6.63227 -7.31732 4.7725 -9.04845 -13.6783 
